# xmcd
#
# Track frame offsets: 
#        150
#        11835
#        23722
#        38197
#        49272
#        65447
#        79485
#        96485
#        111472
#        128172
#        144972
#        160722
#        176847
#        190147
#        206510
#        221785
#        235272
#        248822
#        263847
#        277697
#        292422
#        310122
#        326472
#        343147
#
# Disc length: 4760 seconds
#
# Revision: 3
# Processed by: cddbd v1.5.1PL2 Copyright (c) Steve Scherf et al.
# Submitted via: ExactAudioCopy v0.95b4
#
DISCID=6f129618
DTITLE=Sylvia - Anthology
DYEAR=1997
DGENRE=Country
TTITLE0=You Don't Miss A Thing
TTITLE1=It Don't Hurt To Dream
TTITLE2=Tumbleweed
TTITLE3=Drifter
TTITLE4=The Matador
TTITLE5=Heart On The Mend
TTITLE6=Sweet Yesterday
TTITLE7=Nobody
TTITLE8=Like Nothing Ever Happened
TTITLE9=Snapshot
TTITLE10=The Boy Gets Around
TTITLE11=I Never Quite Got Back (From Loving You)
TTITLE12=Victims Of Goodbye
TTITLE13=Love Over Old Times
TTITLE14=One Step Closer
TTITLE15=Fallin' In Love
TTITLE16=Cry Just A Little Bit
TTITLE17=I Love You By Heart (w/ Michael Johnson)
TTITLE18=Nothin' Ventured Nothin' Gained
TTITLE19=Straight From My Heart
TTITLE20=Never My Love
TTITLE21=Knockin' Around
TTITLE22=Blame It On Love
TTITLE23=Turn My Heart Away
EXTD=YEAR: 1997
EXTT0=
EXTT1=
EXTT2=
EXTT3=
EXTT4=
EXTT5=
EXTT6=
EXTT7=
EXTT8=
EXTT9=
EXTT10=
EXTT11=
EXTT12=
EXTT13=
EXTT14=
EXTT15=
EXTT16=
EXTT17=
EXTT18=
EXTT19=
EXTT20=
EXTT21=
EXTT22=
EXTT23=
PLAYORDER=
